<?xml version="1.0" standalone="no"?>
<!DOCTYPE svg PUBLIC "-//W3C//DTD SVG 20010904//EN"
 "http://www.w3.org/TR/2001/REC-SVG-20010904/DTD/svg10.dtd">
<svg version="1.0" xmlns="http://www.w3.org/2000/svg"
 width="41.000000pt" height="38.000000pt" viewBox="0 0 41.000000 38.000000"
 preserveAspectRatio="xMidYMid meet">

<g transform="translate(0.000000,38.000000) scale(0.100000,-0.100000)"
fill="#000000" stroke="none">
<path d="M227 374 c-13 -13 -7 -31 18 -58 19 -20 30 -25 50 -20 28 7 32 25 10
44 -12 10 -16 9 -21 -4 -9 -24 -22 -19 -26 11 -3 26 -18 39 -31 27z"/>
<path d="M120 322 c0 -11 -7 -25 -15 -32 -8 -7 -15 -23 -15 -36 0 -13 -4 -24
-10 -24 -5 0 -10 14 -10 30 0 17 -5 30 -11 30 -7 0 -9 -10 -5 -24 7 -28 -11
-46 -20 -22 -7 20 -24 21 -24 3 0 -21 34 -47 60 -47 13 0 35 -10 48 -22 28
-25 28 -29 -1 44 -9 21 -8 35 6 63 21 43 21 49 8 53 -6 2 -11 -5 -11 -16z"/>
<path d="M344 276 c-3 -8 -1 -24 6 -35 8 -17 8 -21 -3 -21 -8 0 -17 9 -20 20
-3 11 -12 20 -21 20 -20 0 -20 -5 -1 -34 15 -23 15 -24 -11 -30 -14 -4 -29 -5
-32 -1 -3 3 1 5 8 5 7 0 11 2 8 5 -9 10 -58 -18 -58 -32 0 -20 30 -28 51 -15
10 7 37 12 59 12 44 0 60 18 60 67 0 43 -34 71 -46 39z"/>
<path d="M150 235 c0 -8 5 -15 10 -15 6 0 10 7 10 15 0 8 -4 15 -10 15 -5 0
-10 -7 -10 -15z"/>
<path d="M220 235 c0 -8 5 -15 10 -15 6 0 10 7 10 15 0 8 -4 15 -10 15 -5 0
-10 -7 -10 -15z"/>
<path d="M30 175 c0 -18 19 -40 26 -32 4 4 0 15 -9 24 -9 10 -17 13 -17 8z"/>
<path d="M137 136 c-3 -8 -21 -19 -39 -24 -23 -6 -34 -15 -36 -30 -4 -23 13
-31 21 -9 3 9 9 9 26 -1 18 -10 26 -10 37 -1 16 13 18 47 5 67 -7 11 -9 11
-14 -2z"/>
<path d="M230 112 c0 -7 -11 -17 -24 -23 -23 -11 -53 -58 -38 -60 4 -1 31 -3
60 -5 44 -3 53 -1 48 11 -6 17 5 20 21 4 7 -7 9 -3 6 15 -3 16 -10 23 -19 19
-8 -3 -14 0 -14 6 0 6 9 11 19 11 25 0 36 16 19 27 -21 13 -78 9 -78 -5z"/>
<path d="M57 29 c7 -7 15 -10 18 -7 3 3 -2 9 -12 12 -14 6 -15 5 -6 -5z"/>
</g>
</svg>
